<svg version="1.1" xmlns="http://www.w3.org/2000/svg" xmlns:xlink="http://www.w3.org/1999/xlink" width="1024" height="1024" viewBox="-43.6734 22.5269 0.3081 0.3371"><g transform="scale(0.0001,-0.0001)"><path class="C3303500" d="M-434042 -225350l-52 -103l197 -147l15 -121l-280 -240l41 -142l222 -54l70 -155l-183 -208l41 -111l258 -112l60 -107l-216 -49l-356 -177l-115 -169l233 -435l-215 22l-391 -220l-310 -55l123 -222l-693 -133l-291 -98l-43 -218l-312 -23l-206 70l-289 -83l506 381l-119 426l266 363l488 -108l242 64l-71 153l64 323l219 127l-424 123l224 240l-129 -10l-118 193l-127 22l23 249l-235 -103l-302 -225l-3 234l354 280l48 102l237 38l162 114l288 -69l163 177l515 277l277 -112l144 31Z" centroide="-435016.83768209076,-226872.33522719235"></path></g></svg>