<svg version="1.1" xmlns="http://www.w3.org/2000/svg" xmlns:xlink="http://www.w3.org/1999/xlink" width="1024" height="1024" viewBox="-43.4162 22.4757 0.2219 0.3343"><g transform="scale(0.0001,-0.0001)"><path class="C3301702" d="M-432252 -225637l309 -588l-233 -304l-70 -215l99 -286l1 -247l-37 -107l-203 -43l-399 -376l60 -230l-186 -67l-158 101l-240 -27l17 467l20 320l75 146l-86 142l-198 -34l-172 135l-60 107l-258 112l-41 111l183 208l-70 155l-222 54l-41 142l280 240l-15 121l-197 147l52 103l294 144l60 -59l369 73l352 435l499 -307l154 -136l-150 -69l-143 -343l61 -139l294 114Z" centroide="-433002.89640164323,-226327.8250594917"></path></g></svg>