<svg version="1.1" xmlns="http://www.w3.org/2000/svg" xmlns:xlink="http://www.w3.org/1999/xlink" width="1024" height="1024" viewBox="-43.9386 22.6925 0.272 0.3797"><g transform="scale(0.0001,-0.0001)"><path class="C3302007" d="M-436666 -230425l-11 -105l-1159 -96l-755 -96l-54 270l582 -161l524 16l591 93l282 79Z M-438573 -229450h0h0h0Z M-438651 -229457h0h0h0Z M-438641 -229256h0h0h0Z M-438842 -229479l-4 205l165 15l-161 -220Z M-438123 -229207h0h0h0Z M-437536 -226996l153 -90l-128 -194l-148 -4l-96 -409l-209 -31l-59 -307l364 -259l912 -358l-357 -20l-403 -210l-439 -155l-14 -137l-462 -152l-119 131l131 174l-264 -21l-173 -187l-4 371l-258 8l-133 -93l-144 68l282 416l-29 80l223 80l117 175l403 139l261 265l-160 38l-59 158l40 248l453 347l319 -71Z" centroide="-438166.9927356421,-228319.60765510632"></path></g></svg>