<svg version="1.1" xmlns="http://www.w3.org/2000/svg" xmlns:xlink="http://www.w3.org/1999/xlink" width="1024" height="1024" viewBox="-43.1348 22.8543 0.1804 0.1311"><g transform="scale(0.0001,-0.0001)"><path class="C3303302" d="M-430837 -229854h0h0h0Z M-430623 -229827h0h0h0Z M-430548 -229807h0h0h0Z M-431021 -229568h0h0h0Z M-431155 -229517h0h0h0Z M-431196 -228748h0h0h0Z M-431170 -228593h0h0h0Z M-429544 -229009l-298 -318l-382 -283l85 -160l-258 23l-358 186l-349 25l-52 125l-172 19l132 168l166 -125l73 194l-153 1l-238 337l314 259l520 -174l236 -27l192 -157l180 35l50 -194l312 66Z M-431160 -228543h0h0h0Z" centroide="-430553.7528642295,-229150.70696588422"></path></g></svg>