<svg version="1.1" xmlns="http://www.w3.org/2000/svg" xmlns:xlink="http://www.w3.org/1999/xlink" width="1024" height="1024" viewBox="-43.796 22.746 0.6969 0.3346"><g transform="scale(0.0001,-0.0001)"><path class="C3304557" d="M-435591 -230806h0h0h0Z M-435733 -230728h0h0h0Z M-431998 -230726h0h0h0Z M-431946 -230667h0h0h0Z M-435112 -230613h0h0h0Z M-435113 -230604h0h0h0Z M-435675 -230600h0h0h0Z M-431488 -230588h0h0h0Z M-435658 -230588v1v-1h0Z M-435658 -230587v-1v1h0Z M-435670 -230579h0h0h0Z M-435635 -230590h0h0h0Z M-435651 -230580h0h0h0Z M-435632 -230545h0h0h0Z M-435081 -230526h0h0h0Z M-435693 -230509l1 1l2 1l-3 -2Z M-435693 -230509l3 2l-2 -1l-1 -1Z M-435693 -230499l1 -3l-1 3h0Z M-435830 -230453h0h0h0Z M-435856 -230447h0h0h0Z M-435885 -230422h0h0h0Z M-435927 -230413h0h0h0Z M-433039 -230366h0h0h0Z M-435779 -230426h0h0h0Z M-431974 -230346h0h0h0Z M-431950 -230331h0h0h0Z M-431929 -230313h0h0h0Z M-432986 -230311h0h0h0Z M-435670 -230579l-414 76l-593 -27l11 105l527 116l469 -270Z M-436045 -230307h0h0h0Z M-431922 -230289h0h0h0Z M-432763 -230288h0h0h0Z M-435991 -230280l198 -181l-237 80l39 101Z M-436026 -230289h0h0h0Z M-432029 -230255h0h0h0Z M-431920 -230255h0h0h0Z M-431825 -230237h0h0h0Z M-431833 -230215h0h0h0Z M-436604 -229996h0h0h0Z M-436597 -229982h0h0h0Z M-436953 -229864h0h0h0Z M-431823 -229863h0h0h0Z M-437031 -229851h0h0h0Z M-431473 -229617h0h0h0Z M-431460 -229342h0h0h0Z M-431958 -228870h0h0h0Z M-432092 -228863h0h0h0Z M-431742 -228828h0h0h0Z M-431729 -228384h0h0h0Z M-432301 -228370l-3 -147l160 -178l-177 37l-85 192l105 96Z M-431671 -228292h0h0h0Z M-432543 -228253h0h0h0Z M-432583 -228245h0h0h0Z M-432552 -228241h0h0h0Z M-431627 -228192h0h0h0Z M-431622 -228111h0h0h0Z M-431232 -228070h0h0h0Z M-431170 -228036h0h0h0Z M-431091 -228016h0h0h0Z M-432725 -228033l77 -231l198 -140l119 -286l287 -53l-64 -232l149 56l345 -134l-65 -91l-30 -381l208 18l-374 -269l-26 -117l-293 18l-264 -136l-298 -18l-147 -114l-824 26l-451 -54l-809 -204l-116 -106l-225 -16l-294 -256l-70 251l-1 3l-532 417l-306 54l-192 213l-169 -100l-642 506l-426 239l14 137l439 155l403 210l357 20l13 8l289 83l206 -70l312 23l43 218l291 98l693 133l208 -249l111 -86l270 98l160 179l246 75l204 85l392 27l240 27l158 -101l186 67Z M-431576 -227998h0h0h0Z M-431687 -227997h0h0h0Z M-431232 -227991h0h0h0Z M-431120 -227970h0h0h0Z M-431209 -227962h0h0h0Z M-431558 -227946h1h-1h0Z M-431554 -227945h0h0h0Z M-431558 -227943l-1 -2l1 2h0Z M-431549 -227941h1h-1h0Z M-431549 -227941v1v-1h1h-1Z M-431548 -227941v1v-1h0Z M-431557 -227940h-1h1h0Z M-431549 -227941l-5 -4l-3 -1h0h-1l-1 1l1 2v3h1h9h0h-1v-1Z M-431556 -227920h0h0h0Z M-431554 -227918h-1h1h0Z M-431555 -227918h1h-1h0Z M-431555 -227918v1v-1h0Z M-431556 -227917h-1h1h0Z M-431555 -227917v-1l-1 1h1Z M-431555 -227917h0h0h0Z M-431557 -227917h0h0h0Z M-431552 -227917h0h0h0Z M-431557 -227917h0h0h0Z M-431038 -227906h0h0h0Z M-431522 -227902h0h0h0Z M-431048 -227902h0h0h0Z M-431014 -227899h0h0h0Z M-431513 -227892h0h0h0Z M-431492 -227887h0h0h0Z M-430991 -227885h0h0h0Z M-431495 -227866h0h0h0Z M-431378 -227826h0h0h0Z M-431404 -227817h0h0h0Z M-431054 -227767h0h0h0Z M-431376 -227760h0h0h0Z M-431410 -227758h0h0h0Z M-431721 -227756l157 -107l-219 -156l-19 -294l-157 125l-209 17l-225 -167l-263 209l93 158l356 126l322 -100l-9 114l173 75Z M-431599 -227700h0h0h0Z M-431146 -227695h0h0h0Z M-431167 -227688h0h0h0Z M-431689 -227687h0h0h0Z M-431686 -227681h0h0h0Z M-431676 -227680h0h0h0Z M-431685 -227677h0h0h0Z M-431682 -227676h0h0h0Z M-431691 -227674h2h-2h0Z M-431678 -227674h0h0h0Z M-431686 -227673h0h0h0Z M-431686 -227673h0h0h0Z M-431682 -227672h0h0h0Z M-431689 -227674h-2h2h0Z M-431691 -227669h0h0h0Z M-431689 -227670h0h0h0Z M-431691 -227669h0h0h0Z M-431691 -227669v2v-2h0Z M-431687 -227668h0h0h0Z M-431691 -227667h0h0h0Z M-431017 -227624h0h0h0Z M-431176 -227536h0h0h0Z M-431055 -227486h0h0h0Z M-431271 -227460h0h0h0Z" centroide="-434576.7270549729,-229253.90514655455"></path></g></svg>