<svg version="1.1" xmlns="http://www.w3.org/2000/svg" xmlns:xlink="http://www.w3.org/1999/xlink" width="1024" height="1024" viewBox="-43.1098 22.7364 0.2239 0.1711"><g transform="scale(0.0001,-0.0001)"><path class="C3304904" d="M-431083 -228474h0h0h0Z M-431036 -228460h0h0h0Z M-431098 -228310h0h0h0Z M-430931 -228213h0h0h0Z M-428859 -228676l-150 -99l-550 -163l15 -71l-312 -66l-50 194l-180 -35l-192 157l-236 27l-520 174l48 251l330 269l-159 144l174 243l316 179l220 108l488 -236l214 -165l3 -312l342 -87l199 -512Z" centroide="-429960.09645048407,-228255.17075361923"></path></g></svg>